<?xml version="1.0" standalone="no"?>
<!DOCTYPE svg PUBLIC "-//W3C//DTD SVG 20010904//EN"
 "http://www.w3.org/TR/2001/REC-SVG-20010904/DTD/svg10.dtd">
<svg version="1.0" xmlns="http://www.w3.org/2000/svg"
 width="9092.000000pt" height="2308.000000pt" viewBox="0 0 9092.000000 2308.000000"
 preserveAspectRatio="xMidYMid meet">

<g transform="translate(0.000000,2308.000000) scale(0.100000,-0.100000)"
fill="#000000" stroke="none">
<path d="M85894 22983 c35 -502 219 -920 547 -1239 381 -369 884 -562 1514
-581 1121 -33 1952 520 2184 1452 22 90 47 258 56 383 l5 82 -694 0 -695 0 -5
-32 c-2 -18 -9 -68 -15 -110 -45 -328 -261 -540 -600 -589 -112 -16 -313 -7
-412 20 -295 77 -465 294 -494 629 l-8 82 -694 0 -695 0 6 -97z"/>
<path d="M0 10560 l0 -10430 4590 0 4590 0 2 5292 3 5293 1243 3 1242 2 0
-5295 0 -5295 4590 0 4590 0 0 10430 0 10430 -10425 0 -10425 0 0 -10430z"/>
<path d="M39895 20424 c-129 -13 -314 -38 -405 -55 -687 -131 -1315 -465
-1765 -941 -694 -734 -1016 -1763 -900 -2875 150 -1433 1033 -2484 2370 -2822
149 -37 347 -74 530 -98 201 -26 796 -26 1005 0 1130 141 1972 645 2418 1449
88 160 184 414 226 598 l5 26 -712 128 c-392 70 -719 129 -728 132 -11 3 -19
-7 -28 -38 -63 -211 -249 -453 -466 -607 -555 -392 -1546 -452 -2164 -131
-460 239 -761 686 -856 1270 -8 52 -17 107 -20 123 l-4 27 2474 0 c2347 0
2474 1 2479 18 7 23 33 216 45 332 20 181 24 421 11 600 -46 663 -241 1209
-604 1695 -109 146 -369 408 -514 518 -454 346 -959 545 -1604 633 -108 15
-692 28 -793 18z m583 -1315 c403 -44 730 -187 967 -425 113 -113 191 -221
266 -371 52 -101 132 -323 154 -420 l7 -33 -1707 0 -1708 0 7 40 c10 66 74
248 121 347 99 210 257 405 435 539 108 82 304 181 447 228 128 41 318 81 448
94 129 13 449 14 563 1z"/>
<path d="M48220 20414 c-460 -55 -872 -208 -1240 -462 -142 -98 -231 -172
-377 -315 l-132 -130 -5 34 c-3 19 -19 178 -36 354 -16 176 -33 339 -36 363
l-5 42 -720 0 -719 0 0 -4725 0 -4725 785 0 785 0 0 1816 0 1816 88 -82 c485
-456 1009 -703 1642 -776 201 -23 595 -15 795 16 358 54 635 141 950 295 415
203 790 511 1079 884 216 278 432 695 540 1039 231 737 231 1586 1 2322 -109
347 -324 762 -541 1041 -534 690 -1304 1111 -2193 1199 -143 14 -522 11 -661
-6z m338 -1435 c544 -59 978 -318 1265 -754 156 -237 261 -540 308 -885 17
-123 17 -506 0 -635 -94 -730 -461 -1261 -1046 -1509 -254 -109 -511 -153
-820 -143 -216 7 -381 36 -568 98 -105 35 -337 155 -433 224 -399 288 -651
749 -725 1330 -17 129 -17 512 0 635 91 669 398 1158 903 1438 175 97 431 175
658 201 110 12 346 13 458 0z"/>
<path d="M65125 20414 c-567 -62 -1083 -244 -1524 -534 -203 -134 -331 -239
-511 -419 -290 -291 -504 -606 -668 -981 -371 -847 -399 -1877 -75 -2755 68
-184 219 -481 330 -650 541 -819 1375 -1321 2408 -1447 172 -21 714 -18 885 5
560 75 1029 245 1455 529 169 112 273 196 419 338 322 313 556 682 689 1086
55 168 105 379 93 392 -7 6 -1455 261 -1488 262 -10 0 -18 -6 -18 -14 0 -31
-72 -233 -115 -325 -142 -298 -387 -544 -686 -685 -231 -110 -499 -166 -789
-166 -950 0 -1609 604 -1747 1600 -26 191 -23 559 6 748 69 450 230 801 492
1076 283 297 630 461 1068 507 139 14 391 7 516 -15 564 -100 972 -448 1150
-980 19 -57 35 -111 35 -119 0 -9 5 -19 11 -22 12 -8 1509 244 1523 256 21 19
-89 378 -180 586 -416 955 -1276 1570 -2404 1719 -175 23 -697 28 -875 8z"/>
<path d="M29510 17020 l0 -3280 785 0 785 0 2 2593 3 2592 1333 3 1332 2 0
-2595 0 -2595 785 0 785 0 0 3280 0 3280 -2905 0 -2905 0 0 -3280z"/>
<path d="M53270 17020 l0 -3280 750 0 750 0 0 2200 c0 1210 3 2200 8 2200 4
-1 456 -615 1005 -1366 l999 -1364 175 2 176 3 989 1365 c544 751 996 1372
1004 1380 12 12 14 -270 14 -2203 l0 -2217 755 0 755 0 0 3280 0 3280 -812 -2
-812 -3 -1026 -1417 c-564 -780 -1028 -1418 -1031 -1418 -3 0 -474 639 -1045
1419 l-1039 1420 -807 0 -808 1 0 -3280z"/>
<path d="M69940 17020 l0 -3280 785 0 785 0 0 1310 0 1310 353 0 352 0 1015
-1310 1015 -1310 948 0 c521 0 947 2 947 5 0 5 -2623 3417 -2656 3456 -12 13
155 219 1257 1555 l1271 1539 -928 3 c-511 1 -934 0 -940 -2 -6 -2 -439 -544
-963 -1205 l-953 -1201 -359 0 -359 0 0 1205 0 1205 -785 0 -785 0 0 -3280z"/>
<path d="M77210 17020 l0 -3280 761 2 762 3 1406 2152 1406 2152 3 -2154 2
-2155 760 0 760 0 0 3280 0 3280 -761 -2 -762 -3 -1406 -2152 -1406 -2152 -3
2155 -2 2154 -760 0 -760 0 0 -3280z"/>
<path d="M85050 17020 l0 -3280 763 0 762 0 1405 2151 c773 1183 1408 2153
1413 2156 4 2 7 -966 7 -2151 l0 -2156 760 0 760 0 0 3280 0 3280 -762 0 -763
0 -1397 -2138 c-768 -1175 -1404 -2146 -1412 -2157 -14 -18 -15 203 -16 2138
l0 2157 -760 0 -760 0 0 -3280z"/>
<path d="M40000 6820 c-535 -44 -968 -161 -1400 -381 -622 -315 -1107 -797
-1418 -1406 -201 -394 -316 -791 -363 -1253 -17 -161 -17 -569 0 -730 79 -772
373 -1439 874 -1983 414 -451 1023 -802 1659 -955 933 -227 1937 -102 2725
339 1060 593 1683 1689 1683 2964 0 1621 -1007 2924 -2553 3304 -145 36 -303
64 -487 86 -159 19 -570 27 -720 15z m545 -1451 c287 -34 554 -131 790 -287
142 -95 348 -301 444 -446 169 -255 272 -542 323 -901 7 -52 13 -187 13 -320
0 -310 -28 -502 -111 -753 -210 -641 -705 -1073 -1359 -1187 -458 -79 -947 -2
-1312 207 -468 269 -770 741 -865 1352 -18 115 -22 185 -22 381 0 196 4 266
22 381 103 668 453 1167 994 1418 317 147 691 201 1083 155z"/>
<path d="M69685 6824 c-22 -2 -96 -9 -165 -15 -354 -30 -741 -129 -1075 -273
-552 -239 -1036 -644 -1369 -1146 -296 -446 -469 -921 -548 -1505 -19 -136
-22 -209 -23 -485 0 -206 5 -369 13 -445 143 -1294 844 -2255 1967 -2698 450
-178 1006 -269 1545 -254 628 19 1161 144 1650 388 554 277 959 671 1205 1171
89 180 202 514 181 535 -9 9 -1428 264 -1441 259 -6 -2 -17 -24 -24 -47 -40
-135 -152 -310 -281 -439 -242 -243 -582 -399 -1020 -467 -90 -14 -174 -18
-380 -18 -292 1 -409 15 -624 75 -577 162 -974 582 -1131 1195 -31 123 -65
297 -65 337 0 17 86 18 2474 18 l2474 0 11 63 c48 283 65 731 36 1007 -78 761
-370 1394 -866 1875 -492 478 -1119 760 -1889 850 -127 15 -568 28 -655 19z
m562 -1329 c593 -84 988 -377 1209 -894 43 -100 104 -295 104 -333 0 -17 -60
-18 -1699 -18 -937 0 -1702 4 -1705 9 -3 4 5 47 18 94 130 472 421 819 836
998 191 82 428 138 675 159 141 11 431 4 562 -15z"/>
<path d="M29510 3415 l0 -3285 785 0 785 0 0 2595 0 2595 1335 0 1335 0 0
-2595 0 -2595 785 0 785 0 0 3285 0 3285 -2905 0 -2905 0 0 -3285z"/>
<path d="M45760 6662 c0 -53 -98 -2443 -110 -2702 -73 -1469 -184 -2100 -416
-2349 -111 -120 -231 -162 -464 -163 -80 -1 -172 4 -204 10 -33 7 -61 11 -62
9 -3 -2 -184 -1336 -184 -1353 0 -13 212 -68 340 -89 217 -36 557 -29 825 17
401 68 740 256 966 536 454 562 680 1524 769 3272 14 279 60 1364 60 1423 l0
47 1010 0 1010 0 0 -2595 0 -2595 785 0 785 0 0 3285 0 3285 -2555 0 -2555 0
0 -38z"/>
<path d="M52845 6688 c-3 -7 -4 -1484 -3 -3283 l3 -3270 760 -3 760 -2 1410
2158 1410 2157 3 -2157 2 -2158 760 0 760 0 0 3285 0 3285 -759 0 -758 0
-1409 -2156 -1409 -2157 -3 2157 -2 2156 -760 0 c-599 0 -762 -3 -765 -12z"/>
<path d="M59970 6010 l0 -690 1050 0 1050 0 0 -2595 0 -2595 785 0 785 0 0
2595 0 2595 1050 0 1050 0 0 690 0 690 -2885 0 -2885 0 0 -690z"/>
<path d="M73600 6694 c0 -3 498 -708 1107 -1567 609 -859 1107 -1571 1107
-1582 0 -11 -487 -782 -1082 -1713 -595 -930 -1082 -1694 -1082 -1697 0 -3
379 -5 843 -5 l843 0 684 1085 c376 597 686 1081 689 1077 4 -5 350 -493 770
-1085 l764 -1077 924 0 c693 0 922 3 917 11 -4 7 -528 753 -1165 1658 -638
905 -1158 1652 -1156 1659 1 6 491 736 1090 1621 598 885 1087 1612 1087 1615
0 3 -391 6 -868 6 l-868 0 -648 -992 c-357 -546 -654 -998 -660 -1005 -8 -9
-188 240 -720 993 l-709 1004 -933 0 c-514 0 -934 -3 -934 -6z"/>
</g>
</svg>
